<svg width="21" height="27" viewBox="0 0 21 27" fill="none" xmlns="http://www.w3.org/2000/svg">
<path d="M2.625 27C1.90312 27 1.28516 26.7356 0.771094 26.2069C0.257031 25.6781 0 25.0425 0 24.3V2.7C0 1.9575 0.257031 1.32188 0.771094 0.793125C1.28516 0.264375 1.90312 0 2.625 0H18.375C19.0969 0 19.7148 0.264375 20.2289 0.793125C20.743 1.32188 21 1.9575 21 2.7V24.3C21 25.0425 20.743 25.6781 20.2289 26.2069C19.7148 26.7356 19.0969 27 18.375 27H2.625ZM9.1875 12.15L12.4687 10.125L15.75 12.15V2.7H9.1875V12.15Z" fill="#EDEDE9"/>
</svg>
