<svg width="28" height="27" viewBox="0 0 28 27" fill="none" xmlns="http://www.w3.org/2000/svg">
<path d="M10.5 4.5C10.5 6.98513 8.4105 9 5.83333 9C3.25617 9 1.16667 6.98513 1.16667 4.5C1.16667 2.01487 3.25617 0 5.83333 0C8.4105 0 10.5 2.01487 10.5 4.5ZM16.3333 0C13.7562 0 11.6667 2.01487 11.6667 4.5C11.6667 6.98513 13.7562 9 16.3333 9C18.9105 9 21 6.98513 21 4.5C21 2.01487 18.9105 0 16.3333 0ZM22.1667 14.625V27H0V14.625C0 12.7642 1.57033 11.25 3.5 11.25H18.6667C20.5963 11.25 22.1667 12.7642 22.1667 14.625ZM24.5 14.8995V23.3516L28 25.8671V12.384L24.5 14.8995Z" fill="#EDEDE9"/>
</svg>
