<svg width="30" height="29" viewBox="0 0 30 29" fill="none" xmlns="http://www.w3.org/2000/svg">
<path d="M25.2253 13.791L24.3441 14.6365C23.8519 13.0811 22.6407 11.8309 21.0914 11.2419C22.504 10.1671 23.4167 8.49849 23.4167 6.625C23.4167 3.37681 20.6793 0.75 17.3333 0.75C15.1001 0.75 13.1416 1.91826 12.0833 3.6598C11.025 1.91826 9.0666 0.75 6.83333 0.75C3.48741 0.75 0.75 3.37681 0.75 6.625C0.75 8.69785 1.86685 10.5196 3.54313 11.5647C1.87978 12.4767 0.75 14.2047 0.75 16.1875V22.9375C0.75 25.8752 3.22608 28.25 6.25 28.25H19.0833C21.5526 28.25 23.6539 26.6691 24.3441 24.4896L25.2254 25.3353L25.2255 25.3353C25.6817 25.7727 26.2699 26.0034 26.8767 26.0034C27.184 26.0034 27.4955 25.9444 27.7956 25.8234C28.6866 25.4665 29.25 24.6608 29.25 23.7194V15.4056C29.25 14.4652 28.6865 13.6597 27.7959 13.3017L27.4527 13.1637V13.1925C26.6565 12.9984 25.8276 13.2124 25.2254 13.7909C25.2254 13.7909 25.2253 13.7909 25.2253 13.791ZM12.0822 9.59048C12.3707 10.0656 12.7262 10.4976 13.1358 10.875H11.0285C11.4382 10.4976 11.7936 10.0656 12.0822 9.59048ZM26.3942 24.1758L26.394 24.1757L24.5833 22.4394V16.6856L26.394 14.9493L26.3945 14.9488C26.602 14.7487 26.8833 14.6936 27.1616 14.8052L27.1618 14.8052C27.4342 14.9142 27.5833 15.1368 27.5833 15.4056V23.7194C27.5833 23.9876 27.4336 24.2104 27.1623 24.3196C26.8829 24.4297 26.6012 24.3746 26.3942 24.1758ZM17.3333 2.375C19.7776 2.375 21.75 4.28981 21.75 6.625C21.75 8.96019 19.7776 10.875 17.3333 10.875C14.8891 10.875 12.9167 8.96019 12.9167 6.625C12.9167 4.28981 14.8891 2.375 17.3333 2.375ZM2.41667 6.625C2.41667 4.28981 4.38909 2.375 6.83333 2.375C9.27758 2.375 11.25 4.28981 11.25 6.625C11.25 8.96019 9.27758 10.875 6.83333 10.875C4.38909 10.875 2.41667 8.96019 2.41667 6.625ZM22.9167 22.9375C22.9167 24.9622 21.2056 26.625 19.0833 26.625H6.25C4.12776 26.625 2.41667 24.9622 2.41667 22.9375V16.1875C2.41667 14.1628 4.12776 12.5 6.25 12.5H19.0833C21.2056 12.5 22.9167 14.1628 22.9167 16.1875V22.9375Z" fill="#EDEDE9" stroke="#EDEDE9" stroke-width="0.5"/>
</svg>
