<svg width="176" height="165" viewBox="0 0 176 165" fill="none" xmlns="http://www.w3.org/2000/svg">
<path d="M153.763 11.6337H157.65L160.371 10.1214L165.813 4.45047L168.922 3.69434L172.032 4.45047L173.587 7.09692L175.142 13.524L174.753 24.1098L172.421 41.8789L167.368 78.1717L156.484 148.871L140.547 152.652L153.763 11.6337Z" fill="#FF2913"/>
<path d="M21.9911 12.012L19.2701 10.8778L15.7717 8.23139L11.1073 3.69461L7.9976 2.93848L4.88795 3.69461L2.94441 4.45074L1.40136 6.71913L1.00088 9.74365L1.40136 11.634L1.77829 19.1953L2.94441 26.3785L4.88795 41.5011L9.94114 77.0392L18.104 135.639L34.4297 144.335L21.9911 12.012Z" fill="#FF2913"/>
<path d="M49.2004 12.0117L46.4794 9.74335L42.2037 4.07237L38.7053 1.80398L35.2069 1.04785L32.486 1.80398L30.1537 2.93818L28.5989 4.8285L27.0441 6.34076L25.4893 8.98722L21.6022 12.0117L22.7683 23.7318L25.1006 43.3911L28.2102 79.3073L34.0408 144.335L48.8117 151.896L57.752 154.92L49.2004 12.0117Z" fill="white"/>
<path d="M75.2434 14.6582L74.8547 11.6337L71.745 10.1214L68.2466 7.47499L64.7483 4.82853L61.2499 3.69434L57.7515 4.44899L56.1967 5.58466L54.6419 7.47499L53.0871 8.98725L51.1435 11.2556L49.2 12.0118L50.3661 26.7563L51.1435 46.7937L53.4758 81.9538L57.7515 154.92L74.8547 157.945L83.7949 157.567L75.2434 14.6582Z" fill="#FF2913"/>
<path d="M102.065 16.1703V9.74324H105.563L108.673 8.23098L112.171 5.20646L116.058 4.07227L119.168 4.8284L121.111 7.09679L122.666 8.98711L124.221 10.4994L126.164 12.0116V13.5239L126.942 28.2684L126.164 48.3059L123.832 83.4659L119.556 156.432L104.008 157.945L100.51 158.323L102.065 16.1703Z" fill="#FF2913"/>
<path d="M102.062 15.6063V9.74337L98.9528 8.98724L97.0093 8.04503L93.5109 5.77664L90.0126 5.02051L87.2916 5.77664L84.9594 6.91083L83.4046 7.85304L81.8497 9.3653L79.5175 10.8776L77.1852 11.6337H74.853L75.2417 34.5096L75.6304 53.977V88.759L77.1852 157.945L92.3448 158.323H100.508L102.062 15.6063Z" fill="white"/>
<path d="M153.373 16.9269L153.762 12.0121L149.486 7.66139L147.154 4.45079L144.821 2.56046L141.712 1.42627L138.213 1.80433L135.881 3.31659L132.383 6.34111L130.051 9.55171L128.107 11.256L126.164 12.0121L125.386 32.8057L124.22 54.7334L122.665 79.3077L122.276 87.247L118.389 156.433L129.662 154.921L141.323 152.274V145.469L153.373 16.9269Z" fill="white"/>
<path d="M42.5924 148.871C31.8825 142.749 17.7152 136.016 17.7152 136.016C17.7152 136.016 1.00364 16.5485 1.00391 10.8768C1.00418 5.2051 1.16887 7.73661 1.39565 6.7181C1.97487 4.11672 4.49246 3.15249 7.22006 2.93671C13.6836 2.4254 16.9377 11.6322 21.2135 11.6322C25.4893 11.6322 27.4328 1.04713 35.5957 1.04639C43.7585 1.04565 45.7021 12.011 49.5891 11.6322C53.4762 11.2534 53.865 5.2051 58.5295 4.07238C66.8777 2.04513 70.1906 11.6315 76.0212 11.6322C81.8518 11.6329 83.7953 4.8263 90.0147 5.2051C96.234 5.58391 97.7174 10.3257 104.008 9.74336C109.219 9.26102 111.394 4.07165 116.447 4.07238C121.5 4.07312 122.277 11.6319 126.553 11.6322C130.829 11.6325 132.773 1.42545 140.935 1.42593C149.098 1.4264 148.908 12.7367 156.872 11.6322C162.314 10.8776 163.48 1.42593 171.255 4.07238C179.029 6.71884 172.918 38.8544 172.032 45.2815C166.979 81.9538 156.872 148.871 156.872 148.871C156.872 148.871 81.0687 170.865 42.5924 148.871Z" stroke="#FF2913"/>
<ellipse cx="56.5849" cy="64.5614" rx="9.71768" ry="9.07356" fill="#050004"/>
<ellipse cx="46.4792" cy="75.1475" rx="7.38543" ry="6.80517" fill="#CC0003"/>
<ellipse cx="130.44" cy="75.1475" rx="7.38543" ry="6.80517" fill="#CC0003"/>
<ellipse cx="120.335" cy="64.5614" rx="9.71768" ry="9.07356" fill="#050004"/>
<ellipse cx="58.1409" cy="61.9148" rx="3.49836" ry="3.40259" fill="white"/>
<ellipse cx="122.666" cy="61.9148" rx="3.49836" ry="3.40259" fill="white"/>
<path d="M78.7402 92.5391C78.7402 92.5391 79.5176 81.9524 88.0692 81.9526C98.1817 81.9529 98.1756 92.5391 98.1756 92.5391" stroke="black" stroke-width="3" stroke-linecap="round"/>
<path d="M22.3789 11.6323C22.3789 11.6323 23.2087 11.9374 26.266 7.47558C28.5982 4.0719 30.9305 1.40094 34.4288 1.04848C37.4552 0.743578 40.6481 1.80293 44.305 6.34222C46.8675 10.8767 48.4223 11.6323 48.4223 11.6323" stroke="white" stroke-width="2" stroke-linecap="round"/>
<path d="M126.941 12.0105C126.941 12.0105 127.719 12.3885 131.003 8.24872C133.599 4.97547 135.876 2.20337 139.531 1.8524C143.186 1.50143 145.211 2.18103 149.486 7.47434C151.43 10.4982 152.985 11.6324 152.985 11.6324" stroke="white" stroke-width="2" stroke-linecap="round"/>
<path d="M75.6309 11.6322C75.6309 11.6322 79.9066 11.6345 83.0163 8.60998C85.99 5.71767 87.6808 5.20527 89.2356 5.20508C92.2782 5.2047 94.2888 5.58314 98.9533 8.98572C99.9898 9.74186 101.286 10.1199 101.286 10.1199" stroke="white" stroke-width="2" stroke-linecap="round"/>
<path d="M44.5352 150.004L50.7545 152.272L56.9738 154.541" stroke="white" stroke-width="2" stroke-linecap="round"/>
<path d="M131.994 154.163L124.997 155.297L119.167 156.431" stroke="white" stroke-width="2" stroke-linecap="round"/>
<path d="M161.148 136.1C161.148 137.848 150.761 156.225 147.882 157.818C146.273 158.708 144.9 158.228 141.907 157.818C138.914 157.408 137.228 157.001 135.921 157.001C133.628 157.001 131.333 154.153 129.638 150.855C128.015 147.699 126.941 144.131 126.941 142.25C126.941 138.402 127.158 135.69 131.645 135.69C132.173 135.69 135.272 136.399 137.631 135.69C140.129 134.939 139.213 134.083 142.101 132.235C143.384 131.414 144.472 130.707 147.465 131.183C150.041 131.593 150.132 133.498 152.168 134.461C155.37 135.974 161.148 134.77 161.148 136.1Z" fill="#FFCF6E"/>
<path d="M170.866 155.968C170.866 158.44 167.231 162.762 161.926 164.285C158.292 165.329 154.066 163.445 151.042 163.151C150.279 163.077 150.006 163.151 149.487 163.151C143.906 163.151 138.604 162.074 138.604 157.48C138.604 156.329 140.01 154.572 140.936 151.431C141.811 148.463 139.77 145.382 143.657 141.224C149.487 136.687 153.234 135.553 156.095 135.553C158.773 135.553 168.252 133.146 171.644 137.443C173.279 139.515 175.279 142.614 174.753 145.76C174.474 147.434 172.273 148.029 171.644 150.675C171.146 152.767 170.866 155.207 170.866 155.968Z" fill="#FBF7DF"/>
<path d="M37.5399 131.533C38.3173 132.667 38.5682 135.806 39.4835 137.582C40.7774 140.093 44.148 137.204 47.6463 140.229C51.9221 147.034 45.3141 150.058 40.2609 152.705C36.6412 154.217 34.819 149.996 31.7093 150.058C28.2048 150.129 27.2963 150.817 25.2624 151.571C24.2326 151.952 21.6029 153.083 16.9385 152.327C13.8288 151.193 6.44184 150.058 6.44336 139.473C6.44336 132.335 16.9385 125.106 22.7691 125.862C26.6561 126.24 25.1013 129.643 27.8223 129.643C31.1434 129.643 33.826 125.724 37.5399 131.533Z" fill="#F5EFBB"/>
<path d="M77.9473 157.937L85.4765 158.319L93.7585 158.324L99.7815 157.949" stroke="white" stroke-width="2" stroke-linecap="round"/>
</svg>
