<svg width="20" height="20" viewBox="0 0 20 20" fill="none" xmlns="http://www.w3.org/2000/svg">
<circle cx="10" cy="10" r="10" fill="black" fill-opacity="0.4"/>
<path d="M6.82617 13.6582C6.74479 13.5768 6.69108 13.4824 6.66504 13.375C6.639 13.2643 6.639 13.1553 6.66504 13.0479C6.69108 12.9404 6.74316 12.8477 6.82129 12.7695L9.11133 10.4795L6.82129 8.19434C6.74316 8.11621 6.69108 8.02344 6.66504 7.91602C6.639 7.80859 6.639 7.70117 6.66504 7.59375C6.69108 7.48307 6.74479 7.38704 6.82617 7.30566C6.9043 7.22754 6.99707 7.17546 7.10449 7.14941C7.21517 7.12012 7.32422 7.12012 7.43164 7.14941C7.54232 7.17546 7.63672 7.22591 7.71484 7.30078L10 9.59082L12.29 7.30566C12.3682 7.22754 12.4593 7.17546 12.5635 7.14941C12.6709 7.12012 12.7783 7.12012 12.8857 7.14941C12.9964 7.17546 13.0908 7.22917 13.1689 7.31055C13.2536 7.38867 13.3089 7.48307 13.335 7.59375C13.361 7.70117 13.361 7.80859 13.335 7.91602C13.3089 8.02344 13.2552 8.11621 13.1738 8.19434L10.8936 10.4795L13.1738 12.7695C13.2552 12.8477 13.3089 12.9404 13.335 13.0479C13.361 13.1553 13.361 13.2643 13.335 13.375C13.3089 13.4824 13.2536 13.5752 13.1689 13.6533C13.0908 13.7347 12.9964 13.79 12.8857 13.8193C12.7783 13.8454 12.6709 13.8454 12.5635 13.8193C12.4593 13.7933 12.3682 13.7396 12.29 13.6582L10 11.373L7.71484 13.6631C7.63672 13.738 7.54232 13.79 7.43164 13.8193C7.32422 13.8454 7.21517 13.8454 7.10449 13.8193C6.99707 13.79 6.9043 13.7363 6.82617 13.6582Z" fill="white" fill-opacity="0.6"/>
</svg>
