<svg width="20" height="20" viewBox="0 0 20 20" fill="none" xmlns="http://www.w3.org/2000/svg">
<path d="M16.3549 7.38386L15.2901 16.9672C15.2432 17.3892 14.8865 17.7085 14.4618 17.7085H5.53692C5.11229 17.7085 4.75557 17.3892 4.70868 16.9672L3.64387 7.38386C3.58902 6.89022 3.97543 6.4585 4.4721 6.4585H15.5267C16.0233 6.4585 16.4097 6.89022 16.3549 7.38386Z" stroke="#FCBF49" stroke-width="1.5" stroke-linecap="square"/>
<path d="M7.72852 6.80273L8.3156 17.3703M12.2736 6.80273L11.6865 17.3703" stroke="#FCBF49" stroke-width="1.5" stroke-linecap="round" stroke-linejoin="round"/>
<path d="M16.0281 6.45773C16.0759 6.11455 16.0025 5.76605 15.8194 5.46634C15.4754 4.90327 14.8817 4.86277 14.4404 4.44544C14.0075 4.03605 13.9238 3.44882 13.3609 3.1413C13.026 2.95833 12.6482 2.90249 12.2723 2.94895C11.8268 3.00437 11.3742 2.87778 11.0125 2.61649C10.4202 2.18643 9.58115 2.18643 8.98884 2.61649C8.60698 2.8938 8.15509 3.00364 7.6878 2.94547C7.32492 2.90031 6.95643 2.96974 6.63956 3.14299C6.07709 3.45051 5.99351 4.03757 5.56078 4.44678C5.11963 4.86396 4.52612 4.90419 4.18207 5.46692C3.99887 5.76656 3.92544 6.11503 3.97318 6.45819" stroke="#FCBF49" stroke-width="1.5" stroke-linecap="round"/>
</svg>
