<svg width="20" height="20" viewBox="0 0 20 20" fill="none" xmlns="http://www.w3.org/2000/svg">
<path d="M9.15957 2.19184C9.49715 1.49139 10.5042 1.49139 10.8417 2.19185L12.521 5.6762C12.6568 5.95809 12.9275 6.1528 13.2403 6.19362L17.1061 6.69817C17.8832 6.7996 18.1944 7.74785 17.6259 8.28219L14.7979 10.9402C14.5691 11.1552 14.4657 11.4703 14.5232 11.7774L15.2331 15.5736C15.3759 16.3367 14.5612 16.9228 13.8722 16.5526L10.4452 14.7109C10.1679 14.5619 9.83337 14.5619 9.55611 14.7109L6.12906 16.5526C5.44012 16.9228 4.62544 16.3367 4.76816 15.5736L5.47812 11.7774C5.53556 11.4703 5.43217 11.1552 5.20337 10.9402L2.37538 8.28219C1.80687 7.74785 2.11806 6.7996 2.8952 6.69817L6.76103 6.19362C7.07379 6.1528 7.34446 5.95809 7.48032 5.6762L9.15957 2.19184Z" stroke="#FCBF49" stroke-width="2" stroke-linecap="round" stroke-linejoin="round"/>
</svg>
