<svg width="18" height="18" viewBox="0 0 18 18" fill="none" xmlns="http://www.w3.org/2000/svg">
<path d="M3.59459 17L2.84615 17.0483C2.87161 17.4429 3.19913 17.75 3.59459 17.75V17ZM14.4054 17V17.75C14.8009 17.75 15.1284 17.4429 15.1538 17.0483L14.4054 17ZM1 2.84459C0.585786 2.84459 0.25 3.18038 0.25 3.59459C0.25 4.00881 0.585786 4.34459 1 4.34459V2.84459ZM17 4.34459C17.4142 4.34459 17.75 4.00881 17.75 3.59459C17.75 3.18038 17.4142 2.84459 17 2.84459V4.34459ZM7.80405 7.91892C7.80405 7.50471 7.46827 7.16892 7.05405 7.16892C6.63984 7.16892 6.30405 7.50471 6.30405 7.91892H7.80405ZM6.30405 12.6757C6.30405 13.0899 6.63984 13.4257 7.05405 13.4257C7.46827 13.4257 7.80405 13.0899 7.80405 12.6757H6.30405ZM11.6959 7.91892C11.6959 7.50471 11.3602 7.16892 10.9459 7.16892C10.5317 7.16892 10.1959 7.50471 10.1959 7.91892H11.6959ZM10.1959 12.6757C10.1959 13.0899 10.5317 13.4257 10.9459 13.4257C11.3602 13.4257 11.6959 13.0899 11.6959 12.6757H10.1959ZM11.6242 3.78154C11.7274 4.18268 12.1363 4.42417 12.5374 4.32092C12.9386 4.21768 13.1801 3.80879 13.0768 3.40765L11.6242 3.78154ZM1.98129 3.64288L2.84615 17.0483L4.34304 16.9517L3.47817 3.54631L1.98129 3.64288ZM3.59459 17.75H14.4054V16.25H3.59459V17.75ZM15.1538 17.0483L16.0187 3.64288L14.5218 3.54631L13.657 16.9517L15.1538 17.0483ZM15.2703 2.84459H2.72973V4.34459H15.2703V2.84459ZM1 4.34459H2.72973V2.84459H1V4.34459ZM15.2703 4.34459H17V2.84459H15.2703V4.34459ZM6.30405 7.91892V12.6757H7.80405V7.91892H6.30405ZM10.1959 7.91892V12.6757H11.6959V7.91892H10.1959ZM9.00002 1.75C10.2615 1.75 11.3233 2.61277 11.6242 3.78154L13.0768 3.40765C12.6096 1.59224 10.9625 0.25 9.00002 0.25V1.75ZM6.37587 3.78154C6.67669 2.61277 7.73855 1.75 9.00002 1.75V0.25C7.03755 0.25 5.39047 1.59224 4.92322 3.40765L6.37587 3.78154Z" fill="#EDEDE9"/>
</svg>
