<svg width="32" height="32" viewBox="0 0 32 32" fill="none" xmlns="http://www.w3.org/2000/svg">
<path d="M15.8 10.6667H16.2M10.4667 16H10.8667M21.1333 16H21.5333M15.8 21.3333H16.2M28 28H17.3333M17 10.6667C17 11.219 16.5523 11.6667 16 11.6667C15.4477 11.6667 15 11.219 15 10.6667C15 10.1144 15.4477 9.66667 16 9.66667C16.5523 9.66667 17 10.1144 17 10.6667ZM11.6667 16C11.6667 16.5523 11.219 17 10.6667 17C10.1144 17 9.66667 16.5523 9.66667 16C9.66667 15.4477 10.1144 15 10.6667 15C11.219 15 11.6667 15.4477 11.6667 16ZM22.3333 16C22.3333 16.5523 21.8856 17 21.3333 17C20.781 17 20.3333 16.5523 20.3333 16C20.3333 15.4477 20.781 15 21.3333 15C21.8856 15 22.3333 15.4477 22.3333 16ZM17 21.3333C17 21.8856 16.5523 22.3333 16 22.3333C15.4477 22.3333 15 21.8856 15 21.3333C15 20.781 15.4477 20.3333 16 20.3333C16.5523 20.3333 17 20.781 17 21.3333ZM28 16C28 22.6274 22.6274 28 16 28C9.37258 28 4 22.6274 4 16C4 9.37258 9.37258 4 16 4C22.6274 4 28 9.37258 28 16Z" stroke="#EDEDE9" stroke-width="2" stroke-linecap="round"/>
</svg>
