<svg width="16" height="15" viewBox="0 0 16 15" fill="none" xmlns="http://www.w3.org/2000/svg">
<path d="M4.8 11.25V13.5H11.2V8.25H4.8V11.25ZM3.2 9.75V8.25H1.6V6.75H3.2V5.25H1.6V9.75H3.2ZM3.2 11.25H1.6V12C1.6 12.3978 1.76857 12.7794 2.06863 13.0607C2.36869 13.342 2.77565 13.5 3.2 13.5V11.25ZM14.4 9.75V5.25H12.8V6.75H14.4V8.25H12.8V9.75H14.4ZM14.4 11.25H12.8V13.5C13.2243 13.5 13.6313 13.342 13.9314 13.0607C14.2314 12.7794 14.4 12.3978 14.4 12V11.25ZM11.2 5.25V1.5H4.8V6.75H11.2V5.25ZM14.4 3.75V3C14.4 2.60218 14.2314 2.22064 13.9314 1.93934C13.6313 1.65804 13.2243 1.5 12.8 1.5V3.75H14.4ZM3.2 3.75V1.5C2.77565 1.5 2.36869 1.65804 2.06863 1.93934C1.76857 2.22064 1.6 2.60218 1.6 3V3.75H3.2ZM3.2 0H12.8C13.6487 0 14.4626 0.316071 15.0627 0.87868C15.6629 1.44129 16 2.20435 16 3V12C16 12.7956 15.6629 13.5587 15.0627 14.1213C14.4626 14.6839 13.6487 15 12.8 15H3.2C2.35131 15 1.53737 14.6839 0.937258 14.1213C0.337142 13.5587 0 12.7956 0 12V3C0 2.20435 0.337142 1.44129 0.937258 0.87868C1.53737 0.316071 2.35131 0 3.2 0Z" fill="#FCBF49"/>
</svg>
