<svg width="32" height="32" viewBox="0 0 32 32" fill="none" xmlns="http://www.w3.org/2000/svg">
<path fill-rule="evenodd" clip-rule="evenodd" d="M24.0007 26.6665C27.2384 24.2339 29.3327 20.3614 29.3327 15.9998C29.3327 8.63604 23.3631 2.6665 15.9993 2.6665C8.63555 2.6665 2.66602 8.63604 2.66602 15.9998C2.66602 23.3636 8.63555 29.3332 15.9993 29.3332H27.9993C28.7357 29.3332 29.3327 28.7362 29.3327 27.9998C29.3327 27.2635 28.7357 26.6665 27.9993 26.6665H24.0007ZM15.9993 12.9998C17.288 12.9998 18.3327 11.9552 18.3327 10.6665C18.3327 9.37784 17.288 8.33317 15.9993 8.33317C14.7107 8.33317 13.666 9.37784 13.666 10.6665C13.666 11.9552 14.7107 12.9998 15.9993 12.9998ZM10.666 18.3332C11.9547 18.3332 12.9993 17.2885 12.9993 15.9998C12.9993 14.7112 11.9547 13.6665 10.666 13.6665C9.37735 13.6665 8.33268 14.7112 8.33268 15.9998C8.33268 17.2885 9.37735 18.3332 10.666 18.3332ZM23.666 15.9998C23.666 17.2885 22.6213 18.3332 21.3327 18.3332C20.044 18.3332 18.9993 17.2885 18.9993 15.9998C18.9993 14.7112 20.044 13.6665 21.3327 13.6665C22.6213 13.6665 23.666 14.7112 23.666 15.9998ZM15.9993 23.6665C17.288 23.6665 18.3327 22.6218 18.3327 21.3332C18.3327 20.0445 17.288 18.9998 15.9993 18.9998C14.7107 18.9998 13.666 20.0445 13.666 21.3332C13.666 22.6218 14.7107 23.6665 15.9993 23.6665Z" fill="#EDEDE9"/>
</svg>
