<svg width="165" height="270" viewBox="0 0 165 270" fill="none" xmlns="http://www.w3.org/2000/svg">
<path d="M21 232.998V60.9976H11.5V24.9976C11.5 24.9976 52.9701 13.1562 81.5 13C110.795 12.8396 155.5 24.9976 155.5 24.9976V60.9976H146V232.998H156V256.998H163.5V268.998H1V256.998H10V232.998H21Z" fill="#F77F00"/>
<path d="M20 53.5016V30.5016C20 30.5016 56.6416 21.8634 80.5 22.0016C106.02 22.1495 145 32.5016 145 32.5016V53.5016H20Z" fill="#FCBF49" stroke="#FCBF49" stroke-width="2" stroke-linecap="round"/>
<path d="M52.5078 34.2808C52.5078 34.2808 52.1562 34.2759 51.4531 34.2661L51.292 43.2969C51.375 43.2871 51.458 43.2822 51.541 43.2822C51.6973 43.2822 51.8364 43.2822 51.9585 43.2822C52.0806 43.2822 52.1831 43.2871 52.2661 43.2969L52.5078 34.2808ZM48.3037 33.3066C49.3193 33.4434 50.6475 33.5117 52.2881 33.5117C53.9287 33.5117 55.0518 33.4873 55.6572 33.4385H55.6865C55.7744 33.4385 55.855 33.4702 55.9282 33.5337C56.0015 33.5923 56.0405 33.646 56.0454 33.6948C56.0552 33.7388 56.0674 33.7998 56.082 33.8779C56.0967 33.9561 56.1162 34.061 56.1406 34.1929C56.165 34.3247 56.1943 34.4761 56.2285 34.647C56.2676 34.8179 56.3091 34.9961 56.353 35.1816C56.4653 35.6406 56.5679 35.9995 56.6606 36.2583L56.6753 36.3828C56.6753 36.4854 56.6338 36.5757 56.5508 36.6538C56.4727 36.7319 56.3896 36.771 56.3018 36.771C56.1162 36.771 55.9917 36.6807 55.9282 36.5C55.6743 35.7627 55.4888 35.0083 55.3716 34.2368C54.8149 34.2661 54.1143 34.2808 53.2695 34.2808L53.0278 43.3262C53.8726 43.3555 54.334 43.4165 54.4121 43.5093C54.4902 43.5972 54.5293 43.6973 54.5293 43.8096C54.5293 43.917 54.4878 44.0049 54.4048 44.0732C54.3267 44.1465 54.2437 44.1831 54.1558 44.1831H54.1118C53.438 44.1001 52.6616 44.0586 51.7827 44.0586C50.9038 44.0586 50.1445 44.1001 49.5049 44.1831H49.4609C49.3535 44.1831 49.2607 44.1416 49.1826 44.0586C49.1094 43.9756 49.0728 43.8853 49.0728 43.7876C49.0728 43.6899 49.1045 43.6045 49.168 43.5312C49.2705 43.4287 49.7222 43.3604 50.5229 43.3262L50.6914 34.2368C49.9199 34.2075 49.2046 34.166 48.5454 34.1123C48.5161 34.2441 48.4795 34.4053 48.4355 34.5957C48.3965 34.7861 48.3525 34.9888 48.3037 35.2036C48.1475 35.8384 48.0474 36.2314 48.0034 36.3828C47.9253 36.6416 47.7959 36.771 47.6152 36.771C47.5029 36.771 47.4102 36.7319 47.3369 36.6538C47.2637 36.5708 47.2271 36.5 47.2271 36.4414V36.3242C47.2271 36.3047 47.2466 36.2266 47.2856 36.0898C47.3296 35.9531 47.3882 35.731 47.4614 35.4233C47.5347 35.1157 47.6006 34.8276 47.6592 34.5591C47.8008 33.9487 47.8716 33.6313 47.8716 33.6069C47.9253 33.4067 48.0498 33.3066 48.2451 33.3066H48.3037ZM60.894 34.2222C60.894 34.2222 60.7158 34.2222 60.3594 34.2222C60.1885 34.2222 60.0103 34.2173 59.8247 34.2075L59.6636 43.2236H60.6377L60.894 34.2222ZM57.8911 33.248C58.8579 33.3848 59.7783 33.4531 60.6523 33.4531C61.5264 33.4531 62.2075 33.4287 62.6958 33.3799H62.7251C62.8374 33.3799 62.9302 33.4189 63.0034 33.4971C63.0767 33.5752 63.1133 33.6655 63.1133 33.7681C63.1133 33.8657 63.0791 33.9512 63.0107 34.0244C62.9424 34.0928 62.8374 34.1343 62.6958 34.1489C62.4419 34.1733 62.0952 34.1978 61.6558 34.2222L61.4214 43.2529C61.6997 43.2725 62.083 43.3018 62.5713 43.3408C62.8008 43.3896 62.9155 43.5288 62.9155 43.7583C62.9058 43.8657 62.8618 43.9487 62.7837 44.0073C62.7104 44.0708 62.625 44.1025 62.5273 44.1025H62.498C60.9404 43.9463 59.3999 43.9463 57.8765 44.1025H57.8472C57.7349 44.1025 57.6421 44.0659 57.5688 43.9927C57.4956 43.9146 57.459 43.8267 57.459 43.729C57.459 43.6313 57.4907 43.5459 57.5542 43.4727C57.6226 43.3994 57.7251 43.3555 57.8618 43.3408C58.0034 43.3262 58.1646 43.3115 58.3452 43.2969C58.5308 43.2822 58.7139 43.2676 58.8945 43.2529L59.063 34.1416C58.6431 34.1123 58.2183 34.0684 57.7886 34.0098C57.6909 33.9951 57.6104 33.9512 57.5469 33.8779C57.4883 33.8047 57.459 33.7144 57.459 33.6069C57.459 33.4995 57.5029 33.4141 57.5908 33.3506C57.6787 33.2822 57.7642 33.248 57.8472 33.248H57.8911ZM67.6177 34.3687C65.938 35.1987 65.0981 36.7393 65.0981 38.9902C65.0981 40.4941 65.5352 41.6343 66.4092 42.4106C66.6973 42.6694 67.0391 42.9038 67.4346 43.1138C66.6045 42.1079 66.1895 40.6431 66.1895 38.7192C66.1895 36.8101 66.6655 35.3599 67.6177 34.3687ZM69.9248 33.0796C71.2871 33.0796 72.3687 33.5557 73.1694 34.5078L73.5723 33.3506C73.6357 33.1699 73.7383 33.0796 73.8799 33.0796C74.0215 33.0796 74.1289 33.1211 74.2021 33.2041C74.2803 33.2822 74.3193 33.3579 74.3193 33.4312C74.3193 33.4995 74.3096 33.5532 74.29 33.5923L73.1255 36.998C73.0767 37.1641 72.9741 37.2471 72.8179 37.2471C72.6665 37.2471 72.5542 37.2056 72.481 37.1226C72.4077 37.0396 72.3711 36.9688 72.3711 36.9102C72.3711 36.8467 72.3809 36.7954 72.4004 36.7563L72.8691 35.3867C72.4541 34.7227 71.8999 34.2686 71.2065 34.0244C70.9771 33.9463 70.6914 33.9072 70.3496 33.9072C70.0127 33.9072 69.6685 33.9756 69.3169 34.1123C68.9702 34.249 68.665 34.4346 68.4014 34.6689C68.1426 34.9033 67.9204 35.1792 67.7349 35.4966C67.5493 35.8091 67.4004 36.1436 67.2881 36.5C67.0684 37.1738 66.9585 37.9136 66.9585 38.7192C66.9585 39.9058 67.144 40.9482 67.5151 41.8467C67.8032 42.54 68.2109 43.0332 68.7383 43.3262C69.0117 43.4775 69.3438 43.5532 69.7344 43.5532C70.1299 43.5532 70.5181 43.4922 70.8989 43.3701C71.2847 43.248 71.6338 43.0723 71.9463 42.8428C72.6055 42.3691 73.0669 41.7441 73.3306 40.9678C73.3843 40.7676 73.4868 40.6675 73.6382 40.6675C73.7896 40.6675 73.9019 40.709 73.9751 40.792C74.0483 40.875 74.085 40.9653 74.085 41.063V41.1509C74.0801 41.1606 74.063 41.2095 74.0337 41.2974C74.0093 41.3853 73.9678 41.5 73.9092 41.6416C73.4453 42.6914 72.6934 43.4458 71.6533 43.9048C71.0283 44.1782 70.335 44.3101 69.5732 44.3003C68.8164 44.2954 68.106 44.166 67.4419 43.9121C66.7827 43.6533 66.2236 43.292 65.7646 42.8281C64.8076 41.876 64.3291 40.5967 64.3291 38.9902C64.3291 36.9248 64.9395 35.3818 66.1602 34.3613C67.1904 33.5068 68.4453 33.0796 69.9248 33.0796ZM78.4795 34.2222C78.3086 34.2319 78.1328 34.2368 77.9521 34.2368H77.4321L77.6885 43.2236H78.6479L78.4795 34.2222ZM81.27 37.8037C81.0015 38.0723 80.7866 38.2725 80.6255 38.4043C81.9829 39.8057 82.9277 41.4365 83.46 43.2969L84.3901 43.1577C83.9751 41.4731 83.2256 39.9863 82.1416 38.6973C81.917 38.4385 81.6265 38.1406 81.27 37.8037ZM75.6304 33.3945C76.1187 33.4434 76.7998 33.4678 77.6738 33.4678C78.5527 33.4678 79.4707 33.3994 80.4277 33.2627H80.479C80.5913 33.2627 80.6841 33.3018 80.7573 33.3799C80.8306 33.4531 80.8672 33.5386 80.8672 33.6362C80.8672 33.7339 80.8354 33.8193 80.772 33.8926C80.7134 33.9658 80.6035 34.0146 80.4424 34.0391C80.1787 34.0732 79.7856 34.1147 79.2632 34.1636L79.3364 38.4775C80.064 37.916 80.6353 37.4204 81.0503 36.9907C81.9341 36.0679 82.6177 35.1133 83.1011 34.127H82.0684C81.9609 34.127 81.8682 34.0928 81.79 34.0244C81.7119 33.9512 81.6729 33.8608 81.6729 33.7534C81.6729 33.6411 81.7119 33.5483 81.79 33.4751C81.8682 33.4019 81.9609 33.3652 82.0684 33.3652H85.3496C85.457 33.3652 85.5474 33.4019 85.6206 33.4751C85.6987 33.5483 85.7378 33.6411 85.7378 33.7534C85.7378 33.8608 85.6987 33.9512 85.6206 34.0244C85.5474 34.0928 85.457 34.127 85.3496 34.127H83.958C83.5527 35.0254 83.0303 35.8433 82.3906 36.5806C82.1953 36.8052 81.9976 37.0273 81.7974 37.2471C83.0181 38.3018 83.9775 39.7202 84.6758 41.5024C84.8662 41.981 85.0273 42.4985 85.1592 43.0552L86.7925 42.8135H86.8364C86.9487 42.8135 87.0415 42.8525 87.1147 42.9307C87.188 43.0088 87.2246 43.0967 87.2246 43.1943C87.2246 43.292 87.1929 43.3774 87.1294 43.4507C87.0708 43.5239 86.9927 43.5679 86.895 43.5825L83.2183 44.1025H83.1743C83.0864 44.1025 83.0059 44.0757 82.9326 44.022C82.8594 43.9683 82.8179 43.917 82.8081 43.8682C82.7983 43.8193 82.7739 43.7241 82.7349 43.5825C82.7007 43.4409 82.6421 43.2505 82.5591 43.0112C82.4761 42.772 82.3638 42.4937 82.2222 42.1763C82.0854 41.854 81.917 41.5122 81.7168 41.1509C81.248 40.3208 80.689 39.5762 80.0396 38.917C80.0298 38.9219 79.8003 39.0903 79.3511 39.4224L79.4243 43.2529C79.605 43.2676 79.7881 43.2822 79.9736 43.2969C80.1592 43.3115 80.3203 43.3262 80.457 43.3408C80.5986 43.3555 80.7012 43.3994 80.7646 43.4727C80.833 43.5459 80.8672 43.6387 80.8672 43.751C80.8672 43.8584 80.8232 43.9438 80.7354 44.0073C80.6475 44.0708 80.562 44.1025 80.479 44.1025H80.4277C79.6953 44.0244 78.9409 43.9854 78.1646 43.9854C77.3882 43.9854 76.6094 44.0244 75.8281 44.1025H75.7842C75.6719 44.1025 75.5791 44.0659 75.5059 43.9927C75.4375 43.9146 75.4033 43.8267 75.4033 43.729C75.4033 43.6313 75.4351 43.5459 75.4985 43.4727C75.5669 43.3994 75.6743 43.3555 75.8208 43.3408C75.9722 43.3262 76.1431 43.3115 76.3335 43.2969C76.5288 43.2822 76.7192 43.2676 76.9048 43.2529L76.6631 34.2368C76.3066 34.2173 75.938 34.1929 75.5571 34.1636C75.4595 34.1538 75.3765 34.1123 75.3081 34.0391C75.2446 33.9658 75.2129 33.8755 75.2129 33.7681C75.2129 33.6606 75.2544 33.5728 75.3374 33.5044C75.4204 33.4312 75.5083 33.3945 75.6011 33.3945H75.6304ZM90.7988 34.3394C90.457 34.3589 90.1079 34.3687 89.7515 34.3687V43.2676C89.9224 43.2578 90.0957 43.2529 90.2715 43.2529C90.4521 43.2529 90.6279 43.248 90.7988 43.2383V34.3394ZM91.7729 43.2383C93.0864 43.2383 94.2632 43.2725 95.3032 43.3408L95.5669 41.3779C95.5864 41.2803 95.6304 41.2021 95.6987 41.1436C95.772 41.0801 95.8599 41.0483 95.9624 41.0483C96.0698 41.0483 96.1577 41.0898 96.2261 41.1729C96.2993 41.2559 96.3359 41.3389 96.3359 41.4219V41.4805L96.021 43.8022C96.0063 43.8999 95.9624 43.978 95.8892 44.0366C95.8159 44.1001 95.7305 44.1318 95.6328 44.1318H95.6182C94.3047 44.0439 93.0181 44 91.7583 44C90.4985 44 89.2803 44.0439 88.1035 44.1318H88.0669C87.9546 44.1221 87.8618 44.083 87.7886 44.0146C87.7153 43.9463 87.6787 43.8608 87.6787 43.7583C87.6787 43.6509 87.7129 43.563 87.7812 43.4946C87.8496 43.4214 87.9473 43.3799 88.0742 43.3701C88.2061 43.3555 88.3501 43.3457 88.5063 43.3408C88.6675 43.3311 88.8262 43.3213 88.9824 43.3115V34.3833C88.8262 34.3735 88.6699 34.3687 88.5137 34.3687H88.0522C87.9497 34.3589 87.8618 34.3198 87.7886 34.2515C87.7153 34.1782 87.6787 34.0879 87.6787 33.9805C87.6787 33.873 87.7178 33.7827 87.7959 33.7095C87.874 33.6313 87.9839 33.5947 88.1255 33.5996C88.272 33.6045 88.4307 33.6069 88.6016 33.6069H89.1216C91.187 33.6069 93.2354 33.4702 95.2666 33.1968H95.3325C95.4302 33.1968 95.5132 33.231 95.5815 33.2993C95.6499 33.3628 95.6914 33.4385 95.7061 33.5264L96.021 36.002V36.0532C96.021 36.1655 95.9795 36.2559 95.8965 36.3242C95.8184 36.3926 95.7305 36.4268 95.6328 36.4268C95.54 36.4268 95.457 36.3975 95.3838 36.3389C95.3154 36.2754 95.2715 36.1948 95.252 36.0972L94.9883 34.0098C94.0215 34.1416 92.8813 34.2417 91.5679 34.3101V39.1367C92.6177 39.0928 93.438 39.0146 94.0288 38.9023H94.1021C94.2046 38.9023 94.2949 38.9414 94.373 39.0195C94.4512 39.0928 94.4902 39.1782 94.4902 39.2759C94.4902 39.481 94.3853 39.6104 94.1753 39.6641C93.5991 39.7764 92.73 39.8569 91.5679 39.9058V43.2383H91.7729ZM102.386 34.2808C102.386 34.2808 102.034 34.2759 101.331 34.2661L101.17 43.2969C101.253 43.2871 101.336 43.2822 101.419 43.2822C101.575 43.2822 101.714 43.2822 101.836 43.2822C101.958 43.2822 102.061 43.2871 102.144 43.2969L102.386 34.2808ZM98.1816 33.3066C99.1973 33.4434 100.525 33.5117 102.166 33.5117C103.807 33.5117 104.93 33.4873 105.535 33.4385H105.564C105.652 33.4385 105.733 33.4702 105.806 33.5337C105.879 33.5923 105.918 33.646 105.923 33.6948C105.933 33.7388 105.945 33.7998 105.96 33.8779C105.975 33.9561 105.994 34.061 106.019 34.1929C106.043 34.3247 106.072 34.4761 106.106 34.647C106.146 34.8179 106.187 34.9961 106.231 35.1816C106.343 35.6406 106.446 35.9995 106.539 36.2583L106.553 36.3828C106.553 36.4854 106.512 36.5757 106.429 36.6538C106.351 36.7319 106.268 36.771 106.18 36.771C105.994 36.771 105.87 36.6807 105.806 36.5C105.552 35.7627 105.367 35.0083 105.25 34.2368C104.693 34.2661 103.992 34.2808 103.147 34.2808L102.906 43.3262C103.75 43.3555 104.212 43.4165 104.29 43.5093C104.368 43.5972 104.407 43.6973 104.407 43.8096C104.407 43.917 104.366 44.0049 104.283 44.0732C104.205 44.1465 104.122 44.1831 104.034 44.1831H103.99C103.316 44.1001 102.54 44.0586 101.661 44.0586C100.782 44.0586 100.022 44.1001 99.3828 44.1831H99.3389C99.2314 44.1831 99.1387 44.1416 99.0605 44.0586C98.9873 43.9756 98.9507 43.8853 98.9507 43.7876C98.9507 43.6899 98.9824 43.6045 99.0459 43.5312C99.1484 43.4287 99.6001 43.3604 100.401 43.3262L100.569 34.2368C99.7979 34.2075 99.0825 34.166 98.4233 34.1123C98.394 34.2441 98.3574 34.4053 98.3135 34.5957C98.2744 34.7861 98.2305 34.9888 98.1816 35.2036C98.0254 35.8384 97.9253 36.2314 97.8813 36.3828C97.8032 36.6416 97.6738 36.771 97.4932 36.771C97.3809 36.771 97.2881 36.7319 97.2148 36.6538C97.1416 36.5708 97.105 36.5 97.105 36.4414V36.3242C97.105 36.3047 97.1245 36.2266 97.1636 36.0898C97.2075 35.9531 97.2661 35.731 97.3394 35.4233C97.4126 35.1157 97.4785 34.8276 97.5371 34.5591C97.6787 33.9487 97.7495 33.6313 97.7495 33.6069C97.8032 33.4067 97.9277 33.3066 98.123 33.3066H98.1816ZM108.714 35.958C108.636 36.2363 108.597 36.522 108.597 36.8149C108.597 37.1079 108.636 37.374 108.714 37.6133C108.797 37.8525 108.963 38.082 109.212 38.3018C109.778 38.7998 110.762 39.1953 112.164 39.4883C113.067 39.6836 113.75 39.9009 114.214 40.1401C114.683 40.3745 115.047 40.6211 115.306 40.8799C115.569 41.1338 115.738 41.439 115.811 41.7954C115.879 41.5952 115.914 41.3682 115.914 41.1143C115.914 40.8555 115.862 40.6138 115.76 40.3892C115.662 40.1646 115.53 39.9692 115.364 39.8032C115.203 39.6323 115.015 39.4834 114.8 39.3564C114.585 39.2295 114.363 39.1221 114.134 39.0342C113.821 38.9121 113.445 38.7974 113.006 38.6899C112.566 38.5825 112.193 38.4897 111.885 38.4116C111.578 38.3335 111.277 38.2456 110.984 38.1479C110.691 38.0503 110.413 37.938 110.149 37.811C109.886 37.6841 109.651 37.5327 109.446 37.3569C109.012 36.981 108.768 36.5146 108.714 35.958ZM108.428 41.5537C109.566 43.0137 110.982 43.7437 112.676 43.7437C113.721 43.7437 114.451 43.4873 114.866 42.9746C115.027 42.7842 115.108 42.562 115.108 42.3081C115.108 42.0542 115.052 41.8418 114.939 41.6709C114.827 41.4951 114.681 41.3389 114.5 41.2021C114.319 41.0654 114.114 40.9458 113.885 40.8433C113.66 40.7358 113.433 40.6431 113.204 40.5649C112.837 40.438 112.461 40.3354 112.076 40.2573C111.69 40.1792 111.326 40.0962 110.984 40.0083C110.643 39.9155 110.318 39.8057 110.01 39.6787C109.703 39.5518 109.417 39.4028 109.153 39.2319C108.89 39.061 108.66 38.8584 108.465 38.624C108.055 38.1309 107.85 37.5083 107.85 36.7563C107.85 35.6382 108.265 34.752 109.095 34.0977C109.856 33.4971 110.779 33.1968 111.863 33.1968C112.474 33.1968 113.147 33.3213 113.885 33.5703C114.598 33.8145 115.091 34.0952 115.364 34.4126C115.477 34.1099 115.635 33.7412 115.84 33.3066C115.923 33.165 116.028 33.0942 116.155 33.0942C116.287 33.0942 116.39 33.1357 116.463 33.2188C116.536 33.2969 116.573 33.375 116.573 33.4531C116.573 33.5264 116.502 33.7095 116.36 34.0024C116.219 34.2954 116.065 34.708 115.899 35.2402C115.738 35.7676 115.623 36.3022 115.555 36.8442C115.545 36.9419 115.503 37.0225 115.43 37.0859C115.362 37.1445 115.274 37.1738 115.167 37.1738C115.064 37.1738 114.976 37.1323 114.903 37.0493C114.83 36.9663 114.793 36.8833 114.793 36.8003V36.7563C114.852 36.2388 114.957 35.7285 115.108 35.2256C115.02 34.957 114.593 34.6787 113.826 34.3906C113.064 34.0977 112.386 33.9512 111.79 33.9512C110.765 33.9512 110.064 34.2686 109.688 34.9033C109.556 35.123 109.488 35.3892 109.483 35.7017C109.532 36.4146 109.986 36.9443 110.845 37.291C111.26 37.4668 111.67 37.5986 112.076 37.6865C112.481 37.7695 112.854 37.8525 113.196 37.9355C113.543 38.0137 113.941 38.126 114.39 38.2725C114.839 38.4189 115.232 38.6118 115.569 38.8511C116.312 39.3735 116.683 40.1401 116.683 41.1509C116.683 42.1567 116.246 42.9844 115.372 43.6338C114.576 44.2197 113.682 44.5127 112.691 44.5127C110.962 44.5127 109.522 43.8975 108.37 42.667V42.8428C108.37 43.1504 108.379 43.4556 108.399 43.7583V43.7876C108.399 43.8853 108.365 43.9707 108.296 44.0439C108.233 44.1172 108.145 44.1562 108.033 44.1611C107.925 44.166 107.835 44.1343 107.762 44.0659C107.688 43.9976 107.647 43.8975 107.637 43.7656C107.618 43.502 107.608 43.1602 107.608 42.7402C107.608 41.9639 107.698 41.124 107.879 40.2207C107.933 40.0107 108.057 39.9058 108.252 39.9058C108.365 39.9058 108.458 39.9497 108.531 40.0376C108.604 40.1206 108.641 40.1865 108.641 40.2354V40.3232C108.641 40.3379 108.631 40.377 108.611 40.4404C108.597 40.5039 108.58 40.5845 108.56 40.6821C108.545 40.7749 108.528 40.8652 108.509 40.9531C108.494 41.0557 108.467 41.2559 108.428 41.5537Z" fill="#A51D1D"/>
<rect x="21" y="169" width="16" height="64" fill="#A51D1D"/>
<rect y="270" width="14" height="165" transform="rotate(-90 0 270)" fill="#A51D1D"/>
<rect x="68" y="169" width="15" height="64" fill="#EDEDE9"/>
<rect x="37" y="169" width="15" height="64" fill="#EDEDE9"/>
<rect x="84" y="169" width="15" height="64" fill="#A51D1D"/>
<rect x="114" y="169" width="16" height="64" fill="#A51D1D"/>
<rect x="51" y="168" width="16" height="65" fill="#A51D1D"/>
<rect x="99" y="169" width="15" height="64" fill="#EDEDE9"/>
<rect x="130" y="169" width="16" height="64" fill="#EDEDE9"/>
<rect x="12" y="150" width="142" height="19" fill="#FCBF49"/>
<rect x="30" y="65" width="107" height="85" fill="#A4A4A0"/>
<path d="M83.3925 139C72.6449 139 72 150 72 150H95C95 150 94.1402 139 83.3925 139Z" fill="black"/>
<path d="M81.8598 0C67.8411 0 67 14 67 14H97C97 14 95.8785 0 81.8598 0Z" fill="#A51D1D"/>
<path d="M54 117.976V98L73.4176 98.5235L111 99.5366V119L54 117.976Z" fill="#A51D1D" stroke="black" stroke-linecap="round"/>
<path d="M74 98.5L85 87L93 99.5" stroke="black" stroke-linecap="round"/>
<circle cx="84.5" cy="87.5" r="2.5" fill="black"/>
<path d="M68.4141 110.454H69.7568C69.7139 110.966 69.5706 111.423 69.3271 111.824C69.0837 112.221 68.7417 112.535 68.3013 112.764C67.8608 112.993 67.3255 113.107 66.6953 113.107C66.2119 113.107 65.7769 113.021 65.3901 112.85C65.0034 112.674 64.6722 112.427 64.3965 112.108C64.1208 111.786 63.9095 111.398 63.7627 110.943C63.6195 110.488 63.5479 109.98 63.5479 109.417V108.768C63.5479 108.205 63.6213 107.697 63.7681 107.242C63.9185 106.787 64.1333 106.399 64.4126 106.077C64.6919 105.751 65.0267 105.502 65.417 105.33C65.8109 105.158 66.2531 105.072 66.7437 105.072C67.3667 105.072 67.8931 105.187 68.3228 105.416C68.7524 105.645 69.0854 105.962 69.3218 106.367C69.5617 106.771 69.7085 107.235 69.7622 107.758H68.4194C68.3836 107.421 68.3049 107.133 68.1831 106.893C68.0649 106.653 67.8895 106.471 67.6567 106.345C67.424 106.216 67.1196 106.152 66.7437 106.152C66.4357 106.152 66.1672 106.209 65.938 106.324C65.7088 106.438 65.5173 106.607 65.3633 106.829C65.2093 107.051 65.0929 107.325 65.0142 107.65C64.939 107.973 64.9014 108.341 64.9014 108.757V109.417C64.9014 109.811 64.9354 110.169 65.0034 110.492C65.075 110.81 65.1825 111.084 65.3257 111.313C65.4725 111.543 65.6587 111.72 65.8843 111.845C66.1099 111.971 66.3802 112.033 66.6953 112.033C67.0785 112.033 67.3882 111.972 67.6245 111.851C67.8644 111.729 68.0452 111.552 68.167 111.319C68.2923 111.083 68.3747 110.794 68.4141 110.454ZM75.8799 111.931V113H71.9536V111.931H75.8799ZM72.3296 105.18V113H70.9814V105.18H72.3296ZM82.8032 108.875V109.305C82.8032 109.896 82.7262 110.425 82.5723 110.895C82.4183 111.364 82.1981 111.763 81.9116 112.092C81.6287 112.422 81.2886 112.674 80.8911 112.85C80.4937 113.021 80.0532 113.107 79.5698 113.107C79.09 113.107 78.6514 113.021 78.2539 112.85C77.86 112.674 77.5181 112.422 77.228 112.092C76.938 111.763 76.7124 111.364 76.5513 110.895C76.3937 110.425 76.3149 109.896 76.3149 109.305V108.875C76.3149 108.284 76.3937 107.756 76.5513 107.291C76.7088 106.821 76.9308 106.422 77.2173 106.093C77.5073 105.76 77.8493 105.507 78.2432 105.335C78.6406 105.16 79.0793 105.072 79.5591 105.072C80.0425 105.072 80.4829 105.16 80.8804 105.335C81.2778 105.507 81.6198 105.76 81.9062 106.093C82.1927 106.422 82.4129 106.821 82.5669 107.291C82.7244 107.756 82.8032 108.284 82.8032 108.875ZM81.4551 109.305V108.864C81.4551 108.427 81.4121 108.042 81.3262 107.709C81.2438 107.373 81.1203 107.092 80.9556 106.866C80.7944 106.637 80.5957 106.465 80.3594 106.351C80.123 106.232 79.8563 106.173 79.5591 106.173C79.2619 106.173 78.9969 106.232 78.7642 106.351C78.5314 106.465 78.3327 106.637 78.168 106.866C78.0068 107.092 77.8833 107.373 77.7974 107.709C77.7114 108.042 77.6685 108.427 77.6685 108.864V109.305C77.6685 109.742 77.7114 110.128 77.7974 110.465C77.8833 110.801 78.0086 111.086 78.1733 111.319C78.3416 111.548 78.5422 111.722 78.7749 111.84C79.0076 111.954 79.2726 112.012 79.5698 112.012C79.8706 112.012 80.1374 111.954 80.3701 111.84C80.6029 111.722 80.7998 111.548 80.9609 111.319C81.1221 111.086 81.2438 110.801 81.3262 110.465C81.4121 110.128 81.4551 109.742 81.4551 109.305ZM88.2656 110.986C88.2656 110.825 88.2406 110.681 88.1904 110.556C88.1439 110.431 88.0597 110.316 87.938 110.212C87.8162 110.109 87.6444 110.008 87.4224 109.912C87.2039 109.811 86.9246 109.709 86.5845 109.605C86.2121 109.491 85.8683 109.364 85.5532 109.224C85.2417 109.081 84.9696 108.916 84.7368 108.73C84.5041 108.54 84.3232 108.324 84.1943 108.08C84.0654 107.833 84.001 107.548 84.001 107.226C84.001 106.907 84.0672 106.617 84.1997 106.356C84.3358 106.095 84.5273 105.869 84.7744 105.679C85.0251 105.486 85.3205 105.337 85.6606 105.233C86.0008 105.126 86.3768 105.072 86.7886 105.072C87.3687 105.072 87.8682 105.18 88.2871 105.395C88.7096 105.609 89.0337 105.898 89.2593 106.259C89.4884 106.621 89.603 107.02 89.603 107.457H88.2656C88.2656 107.199 88.2101 106.972 88.0991 106.775C87.9917 106.574 87.827 106.417 87.605 106.302C87.3866 106.188 87.109 106.13 86.7725 106.13C86.4538 106.13 86.1888 106.179 85.9775 106.275C85.7663 106.372 85.6087 106.503 85.5049 106.667C85.401 106.832 85.3491 107.018 85.3491 107.226C85.3491 107.373 85.3831 107.507 85.4512 107.629C85.5192 107.747 85.623 107.858 85.7627 107.962C85.9023 108.062 86.0778 108.157 86.2891 108.247C86.5003 108.336 86.7492 108.422 87.0356 108.504C87.4689 108.633 87.8467 108.777 88.1689 108.934C88.4912 109.088 88.7598 109.264 88.9746 109.46C89.1895 109.657 89.3506 109.881 89.458 110.132C89.5654 110.379 89.6191 110.66 89.6191 110.975C89.6191 111.305 89.5529 111.602 89.4204 111.867C89.2879 112.128 89.0981 112.352 88.8511 112.538C88.6076 112.721 88.314 112.862 87.9702 112.962C87.63 113.059 87.2505 113.107 86.8315 113.107C86.4556 113.107 86.085 113.057 85.7197 112.957C85.3581 112.857 85.0286 112.705 84.7314 112.5C84.4342 112.293 84.1979 112.035 84.0225 111.727C83.847 111.416 83.7593 111.052 83.7593 110.637H85.1074C85.1074 110.891 85.1504 111.108 85.2363 111.287C85.3258 111.466 85.4494 111.612 85.6069 111.727C85.7645 111.838 85.9471 111.92 86.1548 111.974C86.366 112.028 86.5916 112.055 86.8315 112.055C87.1466 112.055 87.4098 112.01 87.6211 111.92C87.8359 111.831 87.9971 111.706 88.1045 111.544C88.2119 111.383 88.2656 111.197 88.2656 110.986ZM95.9302 111.931V113H91.7783V111.931H95.9302ZM92.1597 105.18V113H90.8115V105.18H92.1597ZM95.3877 108.445V109.498H91.7783V108.445H95.3877ZM95.9033 105.18V106.254H91.7783V105.18H95.9033ZM99.3032 113H97.6328L97.6436 111.931H99.3032C99.7866 111.931 100.191 111.826 100.517 111.614C100.847 111.403 101.094 111.1 101.258 110.707C101.427 110.313 101.511 109.844 101.511 109.299V108.875C101.511 108.452 101.462 108.078 101.366 107.752C101.273 107.427 101.133 107.153 100.947 106.931C100.764 106.709 100.539 106.54 100.27 106.426C100.005 106.311 99.6989 106.254 99.3516 106.254H97.6006V105.18H99.3516C99.8708 105.18 100.345 105.267 100.775 105.443C101.205 105.615 101.575 105.864 101.887 106.189C102.202 106.515 102.444 106.906 102.612 107.36C102.78 107.815 102.864 108.324 102.864 108.886V109.299C102.864 109.861 102.78 110.37 102.612 110.825C102.444 111.279 102.202 111.67 101.887 111.996C101.572 112.318 101.196 112.567 100.759 112.742C100.326 112.914 99.8403 113 99.3032 113ZM98.3794 105.18V113H97.0312V105.18H98.3794Z" fill="white"/>
</svg>
